HIERARCHY
ROOT Hips
{
  OFFSET 0 0 0
  CHANNELS 6 Xposition Yposition Zposition Zrotation Yrotation Xrotation
  JOINT LeftThigh
  {
    OFFSET 8.409438 0 -5.917753
    CHANNELS 3 Zrotation Yrotation Xrotation
    JOINT LeftLeg
    {
      OFFSET 0 0 -42.358652
      CHANNELS 3 Zrotation Yrotation Xrotation
      JOINT LeftFoot
      {
        OFFSET 0 0 -39.357303
        CHANNELS 3 Zrotation Yrotation Xrotation
      }
    }
  }
  JOINT RightThigh
  {
    OFFSET -8.409438 0 -5.917753
    CHANNELS 3 Zrotation Yrotation Xrotation
    JOINT RightLeg
    {
      OFFSET 0 0 -42.358652
      CHANNELS 3 Zrotation Yrotation Xrotation
      JOINT RightFoot
      {
        OFFSET 0 0 -39.357303
        CHANNELS 3 Zrotation Yrotation Xrotation
      }
    }
  }
  JOINT SpineLow
  {
    OFFSET 0 0 4.719101
    CHANNELS 3 Zrotation Yrotation Xrotation
    JOINT SpineMid
    {
      OFFSET 0 0 12.899191
      CHANNELS 3 Zrotation Yrotation Xrotation
      JOINT Chest
      {
        OFFSET 0 0 12.899191
        CHANNELS 3 Zrotation Yrotation Xrotation
        JOINT LeftShoulder
        {
          OFFSET 7.550562 1.41573 9.438202
          CHANNELS 3 Zrotation Yrotation Xrotation
          JOINT LeftArm
          {
            OFFSET 9.155056 0 4.247191
            CHANNELS 3 Zrotation Yrotation Xrotation
            JOINT LeftForearm
            {
              OFFSET 0 0 25.771955
              CHANNELS 3 Zrotation Yrotation Xrotation
              JOINT LeftHand
              {
                OFFSET 0 0 25.197169
                CHANNELS 3 Zrotation Yrotation Xrotation
              }
            }
          }
        }
        JOINT RightShoulder
        {
          OFFSET -7.550562 1.41573 9.438202
          CHANNELS 3 Zrotation Yrotation Xrotation
          JOINT RightArm
          {
            OFFSET -9.155056 0 4.247191
            CHANNELS 3 Zrotation Yrotation Xrotation
            JOINT RightForearm
            {
              OFFSET 0 0 -25.771955
              CHANNELS 3 Zrotation Yrotation Xrotation
              JOINT RightHand
              {
                OFFSET 0 0 -25.197169
                CHANNELS 3 Zrotation Yrotation Xrotation
              }
            }
          }
        }
        JOINT Neck
        {
          OFFSET 0 0 15.101124
          CHANNELS 3 Zrotation Yrotation Xrotation
          JOINT Head
          {
            OFFSET 0 0 11.325843
            CHANNELS 3 Zrotation Yrotation Xrotation
            End Site
            {
              OFFSET 0 0 14.157303
            }
          }
        }
      }
    }
  }
}
MOTION
Frames: 16
Frame Time: 0.0
0.0  93.25843  0.0  12.059855  8.27333  -116.249835  35.367021  -5.612011  -102.348363  15.336361  38.457157  106.657503  -1.438091  -2.736139  0.32626  -16.882916  9.574628  9.901554  1.748228  11.761125  17.612952  11.379277  2.764333  4.025344  -0.133446  0.677521  3.895568  -0.254781  1.867871  10.646984  -0.254781  1.867871  10.646984  -6.944022  29.61346  16.685499  172.710767  15.186428  -167.465084  -20.486232  -22.095244  68.283576  28.850329  -37.174451  123.219154  -0.166756  0.390742  26.611896  89.429461  33.467007  37.560291  -38.034121  5.640299  -50.150466  30.743694  -3.892314  45.622969  -0.846426  4.403274  1.704735  -0.646816  3.300134  1.284033  
0.0  93.25843  0.0  10.961618  9.40637  -115.28309  33.801907  -6.166104  -98.985796  15.708623  37.973404  107.612218  -1.52216  -2.488256  0.198509  -16.761181  8.111235  9.377357  1.136346  11.619721  17.16809  10.955712  2.688547  4.040036  -0.186533  0.566723  3.84207  -0.418578  1.574165  10.499297  -0.418579  1.574165  10.499298  -7.002851  29.35953  16.631865  173.49389  15.604448  -167.925298  -19.010953  -23.712772  68.732288  25.035133  -39.061262  125.24012  -0.599676  0.404356  26.567224  87.977233  33.496565  36.821947  -38.549907  4.728725  -50.789547  29.308301  -1.459781  45.292686  -1.368218  4.210835  1.358465  -1.035082  3.155124  1.027839  
0.0  93.25843  0.0  9.795316  10.610582  -114.193972  31.9861  -6.784558  -95.372593  15.688384  37.22755  108.153584  -1.566918  -2.223819  0.096691  -16.671575  6.553002  8.748141  0.468924  11.441949  16.532796  10.701949  2.614538  4.150233  -0.246557  0.451078  3.784179  -0.601647  1.26801  10.340117  -0.601647  1.26801  10.340118  -7.011731  28.994822  16.298442  174.835241  16.418382  -168.085031  -17.540578  -24.699623  69.470567  21.482331  -39.88832  126.448711  -0.977287  0.384208  26.365584  87.095098  33.546893  36.198693  -39.150226  4.731356  -51.078767  27.697422  0.33062  44.965412  -1.860946  4.002764  0.943679  -1.401334  2.999242  0.719685  
0.0  93.25843  0.0  8.612193  11.767195  -112.999968  30.109079  -7.477187  -91.575666  15.282187  36.25114  108.306847  -1.627926  -1.942674  -0.019192  -16.587319  4.998828  7.93266  -0.176648  11.170207  15.801366  10.228432  2.457016  4.184563  -0.273647  0.334926  3.697138  -0.694904  0.954781  10.102462  -0.694904  0.954781  10.102462  -7.087096  28.415947  15.746035  176.417549  17.497204  -168.12152  -16.365603  -24.923379  70.504376  18.567654  -39.650543  126.605198  -1.352841  0.217455  26.20332  86.532525  33.621016  35.67213  -40.017242  5.114362  -51.223593  26.714126  1.229026  45.185087  -2.387763  3.7718  0.560004  -1.793637  2.826717  0.434614  
0.0  93.25843  0.0  7.458867  12.832137  -111.703611  28.301992  -8.28956  -87.658292  14.622969  35.153775  108.112068  -1.731075  -1.645989  -0.17404  -16.447833  3.485514  6.957704  -0.877956  10.824601  14.95737  9.817422  2.363256  4.256816  -0.254876  0.195194  3.57353  -0.666149  0.569802  9.765925  -0.666149  0.569802  9.765925  -6.982682  28.024259  15.271844  177.692867  19.077368  -168.017607  -15.620456  -24.526483  71.760673  16.237533  -38.423881  125.789535  -1.673827  0.217192  26.283584  85.892047  33.925672  34.987642  -41.001727  5.586975  -51.405908  26.382545  1.451601  45.986918  -2.913978  3.614227  0.284979  -2.186446  2.709386  0.230923  
0.0  93.25843  0.0  6.333589  13.795507  -110.322404  26.651077  -9.28472  -83.707797  13.865203  34.084005  107.62135  -1.869883  -1.350035  -0.340824  -16.264014  2.036057  5.855705  -1.705531  10.419331  13.991703  9.313589  2.198723  4.302832  -0.232092  0.049747  3.429164  -0.625893  0.168525  9.372717  -0.625893  0.168525  9.372717  -7.145689  27.563989  14.496438  178.925439  20.582968  -167.684484  -15.189356  -23.961141  73.078464  14.156885  -36.565784  124.352608  -2.025878  0.224008  26.160218  85.571917  34.191861  34.524152  -41.90633  6.199906  -51.691539  26.285644  1.204691  47.107592  -3.439984  3.499301  -0.005247  -2.579155  2.624604  0.015785  
0.0  93.25843  0.0  5.26005  14.581027  -108.806741  25.25351  -10.501395  -79.869897  13.165373  33.120052  106.917116  -1.99882  -1.073343  -0.52554  -16.034748  0.676352  4.579124  -2.594431  9.947017  12.952535  8.787168  2.073008  4.351028  -0.209371  -0.092288  3.257451  -0.58352  -0.223569  8.904672  -0.58352  -0.223569  8.904672  -7.176141  27.087404  13.670062  179.719398  22.029206  -167.132889  -14.912719  -23.656728  74.377562  11.896715  -34.597067  122.674175  -2.073982  0.221383  25.967711  85.014685  34.680211  34.060078  -42.401597  6.584309  -52.173593  26.533446  0.952389  48.470996  -3.831251  3.408537  -0.240937  -2.871246  2.558032  -0.159266  
0.0  93.25843  0.0  4.240123  15.242359  -107.321806  23.963804  -12.018197  -76.043472  12.600642  32.220137  106.024362  -2.097412  -0.818323  -0.739712  -15.858553  -0.519944  3.26473  -3.559256  9.442425  11.89234  8.488791  1.781717  4.448209  -0.170176  -0.235672  3.085448  -0.494334  -0.621291  8.435605  -0.494334  -0.621291  8.435605  -7.115608  26.737018  13.087023  179.892363  23.527436  -166.275939  -14.769645  -23.84667  75.666049  9.215957  -32.979699  120.940593  -2.180088  0.255291  25.583499  84.825545  35.098922  33.822483  -43.062928  6.827935  -52.808447  27.213299  0.510187  49.784375  -4.223563  3.330078  -0.441689  -3.164373  2.500753  -0.308154  
0.0  93.25843  0.0  3.311705  15.745906  -105.952419  22.762174  -13.697237  -72.13627  12.076459  31.351186  104.921362  -2.086617  -0.590746  -0.940829  -15.761821  -1.534059  2.042807  -4.518066  8.910883  10.824128  8.135506  1.54232  4.482105  -0.17938  -0.348748  2.891501  -0.5312  -0.930269  7.906649  -0.5312  -0.930269  7.906649  -6.358843  26.232626  12.834729  179.582378  24.860469  -165.331412  -14.495752  -24.406344  76.962748  6.171276  -31.915134  119.225536  -1.832332  0.243077  25.296759  83.919221  35.934886  33.355643  -42.845309  6.984961  -53.759749  28.183329  -0.184674  51.192708  -4.329111  3.234882  -0.467997  -3.243493  2.429621  -0.327988  
0.0  93.25843  0.0  2.459413  16.137084  -104.684152  21.611441  -15.427339  -68.169806  11.565372  30.487723  103.626793  -1.922334  -0.421799  -1.093456  -15.915868  -2.380631  0.891035  -5.207035  8.329517  9.842502  8.051232  1.189376  4.660659  -0.116765  -0.485402  2.693017  -0.372764  -1.31191  7.364311  -0.372764  -1.31191  7.364311  -6.15826  25.872638  12.655988  179.151715  26.135385  -164.320712  -14.117457  -25.137817  78.339839  2.966106  -31.509286  117.615055  -2.00363  0.406078  24.940887  84.295143  36.365808  33.474798  -43.435471  7.236624  -54.635529  29.349028  -1.224313  52.703145  -4.68155  3.192412  -0.422675  -3.508046  2.397713  -0.292466  
0.0  93.25843  0.0  1.740246  16.470873  -103.569135  20.438678  -17.124702  -64.026133  11.052032  29.66623  102.097745  -1.554482  -0.280788  -1.134401  -16.413991  -2.945918  -0.179127  -5.790828  7.741912  8.89307  7.907054  0.928785  4.77827  -0.046422  -0.599668  2.484864  -0.188347  -1.632375  6.79455  -0.188347  -1.632375  6.79455  -6.07736  25.523984  12.723748  178.580008  27.372097  -163.298652  -13.793193  -25.98814  79.834027  -0.431358  -31.443042  116.095104  -2.254395  0.477478  24.598616  84.86857  36.809278  33.795159  -43.934522  7.596903  -55.567392  30.678113  -2.638864  54.261974  -5.027515  3.139666  -0.242143  -3.768447  2.35693  -0.155722  
0.0  93.25843  0.0  1.164098  16.776531  -102.588588  19.361784  -18.626956  -59.671722  10.297583  28.963957  100.280438  -1.10856  -0.172063  -1.101142  -17.004738  -3.325704  -1.101806  -5.969481  7.109967  8.221342  7.8379  0.600444  4.929391  0.002337  -0.694268  2.295625  -0.059507  -1.895968  6.27638  -0.059507  -1.895968  6.27638  -6.002777  25.126004  12.719347  177.675752  28.543693  -162.489664  -13.658569  -26.780207  81.45089  -3.901956  -31.567452  114.645964  -2.442926  0.544428  24.167152  85.702416  37.262613  34.28241  -44.491832  8.044059  -56.578047  32.187111  -4.332111  55.78853  -5.310806  3.112302  -0.071897  -3.981758  2.33506  -0.026841  
0.0  93.25843  0.0  0.662608  17.062857  -101.731461  18.373945  -19.960629  -55.107371  9.215371  28.338398  98.115  -0.609307  -0.075995  -1.036923  -17.578712  -3.655084  -1.921663  -5.9252  6.50633  7.718788  7.52383  0.185886  4.967757  0.021256  -0.778944  2.115153  -0.010061  -2.129152  5.782719  -0.010061  -2.129152  5.782719  -5.919864  24.65902  12.630869  176.482156  29.587248  -161.931014  -13.751137  -27.393778  83.194107  -7.28764  -31.737001  113.380074  -2.510689  0.635499  23.71401  86.644715  37.76386  34.821864  -45.103349  8.473994  -57.709527  34.008007  -6.127761  57.191681  -5.470037  3.136618  0.116306  -4.102099  2.351646  0.115319  
0.0  93.25843  0.0  0.185947  17.244372  -100.830225  17.528871  -21.209239  -50.557571  7.928962  27.746286  95.606368  -0.037782  0.040582  -0.926202  -17.870881  -4.112575  -2.785502  -5.793653  6.019075  7.356304  7.189931  0.020218  5.074112  0.033376  -0.862917  1.91437  0.022874  -2.359639  5.233597  0.022874  -2.359639  5.233597  -5.963288  24.186356  12.484487  175.160352  30.564936  -161.516862  -14.050009  -27.812001  85.012585  -10.529254  -31.765632  112.375978  -2.545458  0.696237  23.257492  87.700639  38.321427  35.420311  -45.806025  8.779082  -58.965628  36.265065  -7.957641  58.369799  -5.560585  3.22091  0.315029  -4.171003  2.413055  0.26557  
0.0  93.25843  0.0  -0.282134  17.321064  -99.907529  16.59323  -22.459337  -46.022289  6.759443  26.967874  92.841962  0.626491  0.095268  -0.762387  -17.80301  -4.745825  -3.650542  -5.765303  5.741309  7.079756  6.727122  -0.094572  5.122389  0.034527  -0.951552  1.707211  0.027159  -2.601918  4.667353  0.027159  -2.601918  4.667353  -6.002489  23.724444  12.339057  173.667336  31.472602  -161.095235  -14.457802  -28.094156  86.801832  -13.618367  -31.652751  111.647516  -2.550306  0.771965  22.760576  88.89856  38.984271  35.999817  -46.586619  8.864717  -60.308942  38.927876  -9.844163  59.226295  -5.530064  3.378123  0.511877  -4.149181  2.52921  0.414437  
0.0  93.25843  0.0  -0.760249  17.398523  -98.989266  15.045242  -23.946937  -41.483251  6.258313  25.794112  90.046839  1.411489  0.100593  -0.567764  -17.560072  -5.553168  -4.531771  -5.935578  5.734389  6.908554  6.469985  -0.127818  5.167789  0.012526  -1.047713  1.504405  -0.030982  -2.863323  4.113971  -0.030982  -2.863323  4.113971  -6.017187  23.373309  12.243835  172.070561  32.424708  -160.530332  -14.896912  -28.230732  88.459677  -16.616131  -31.421533  111.290258  -2.506839  0.765  22.123155  90.186638  39.742425  36.616293  -47.345021  8.689849  -61.668299  42.063256  -11.684383  59.589333  -5.424354  3.600271  0.675427  -4.070914  2.694467  0.538447  
